<?xml version="1.0" encoding="UTF-8"?>
<svg version="1.1" viewBox="0 0 2000 2000" width="500" height="500" xmlns="http://www.w3.org/2000/svg">
<path transform="translate(962,1051)" d="m0 0h152l2 3 19 137 17 124 4 29 2 8 5-38 15-109 17-123 4-26 2-5h153l1 1v503l-62 1h-29l-2-3v-352l-10 61-21 132-14 87-11 68-2 6-55 1h-25l-10-1-2-8-12-70-11-65-20-118-15-87-1-7-1 355-53 1h-36l-2-1v-503z" fill="#FDFDFD"/>
<path transform="translate(1394,1051)" d="m0 0h143l23 2 17 4 14 6 12 8 8 7 8 11 7 14 5 16 4 25v62l-4 21-6 15-7 11-6 7-12 9-13 4-1 2 9 3 12 7 9 8 8 11 6 12 6 19 3 16 2 22v44l-3 32-5 26-8 24-8 16-8 11-6 7-11 8-14 7-17 5-12 2-20 1h-135l-1-1v-503zm100 77-2 1v112h24l9-3 5-6 3-8 2-16v-58l-2-10-4-6-5-4-4-1zm-2 192v147h16l12-2 8-4 8-8 4-9 1-6v-85l-3-14-5-10-7-6-11-3z" fill="#FDFDFD"/>
<path transform="translate(1338,399)" d="m0 0h169l2 2 14 145 20 209 14 146v2l-3 1h-93l-1-1-6-73v-8l-61 1-5 72-1 8-9 1h-89l-1-5 3-23 6-64 6-60 7-74 7-72 9-93 10-104 1-9zm82 85-1 1-4 50-10 138-4 55-1 13 2 1h44l-1-19-7-80-11-127-3-31z" fill="#FC9605"/>
<path transform="translate(453,1046)" d="m0 0 20 1 22 4 15 5 16 8 13 9 9 8 9 11 8 13 6 15 4 15 2 18v98l-41 1h-59l-1-8-1-85-4-11-5-5-8-3h-10l-7 3-5 5-4 9-1 6v279l3 13 6 8 10 4 10-1 7-4 4-5 4-12 1-29v-75l2-3h73l27 1v113l-4 26-7 21-8 15-9 11-11 11-14 9-16 7-23 6-19 2h-32l-19-3-18-6-14-7-12-9-12-11-8-10-8-13-7-16-5-18-2-12-1-12v-265l3-26 3-15 5-18 8-18 10-16 12-13 14-10 17-8 18-5 14-2z" fill="#FDFDFD"/>
<path transform="translate(612,399)" d="m0 0h200l1 1 1 95-1 1h-99l1 98h34l60 1v94l-1 1h-94l1 115h56l48 1 1 1v96l-2 1h-206l-1-1v-503z" fill="#FC9605"/>
<path transform="translate(375,399)" d="m0 0h210v89l-10 30-13 35-21 58-19 52-18 49-21 58-15 41h111l1 2v90l-2 1h-214v-95l19-53 18-50 10-27 10-29 17-47 15-42 14-38 9-26 2-5h-103l-1-1v-91z" fill="#FC9605"/>
<path transform="translate(1060,399)" d="m0 0h219l1 1v95l-5 1h-55v407l-8 1h-93l-1-45v-263l1-100h-60v-96z" fill="#FC9605"/>
<path transform="translate(848,399)" d="m0 0h99l1 1v418h103l1 1v84l-2 1h-202l-1-1v-503z" fill="#FC9605"/>
<path transform="translate(606,1051)" d="m0 0h88l12 1 1 405v12l102 1 1 1v84l-7 1h-196l-2-1v-503z" fill="#FEFEFE"/>
<path transform="translate(829,1051)" d="m0 0h85l12 1v503h-97l-1-2v-500z" fill="#FDFDFC"/>
</svg>
